<mxfile host="app.diagrams.net" modified="2024-05-10T13:48:07.403Z" agent="Mozilla/5.0 (Windows NT 10.0; Win64; x64) AppleWebKit/537.36 (KHTML, like Gecko) Chrome/124.0.0.0 Safari/537.36" etag="LYt2lgyEN4uJCkNHW8Ya" version="24.3.1" type="github">
  <diagram name="Page-1" id="74e2e168-ea6b-b213-b513-2b3c1d86103e">
    <mxGraphModel dx="1664" dy="840" grid="1" gridSize="10" guides="1" tooltips="1" connect="1" arrows="1" fold="1" page="1" pageScale="1" pageWidth="1100" pageHeight="850" background="none" math="0" shadow="0">
      <root>
        <mxCell id="0" />
        <mxCell id="1" parent="0" />
        <mxCell id="gc2R8hZUka59IbpJ6Cbl-3" value="" style="edgeStyle=orthogonalEdgeStyle;rounded=0;orthogonalLoop=1;jettySize=auto;html=1;" edge="1" parent="1" source="gc2R8hZUka59IbpJ6Cbl-1" target="gc2R8hZUka59IbpJ6Cbl-2">
          <mxGeometry relative="1" as="geometry" />
        </mxCell>
        <mxCell id="gc2R8hZUka59IbpJ6Cbl-1" value="Open APP" style="strokeWidth=2;html=1;shape=mxgraph.flowchart.start_1;whiteSpace=wrap;" vertex="1" parent="1">
          <mxGeometry x="500" y="20" width="100" height="60" as="geometry" />
        </mxCell>
        <mxCell id="gc2R8hZUka59IbpJ6Cbl-5" value="" style="edgeStyle=orthogonalEdgeStyle;rounded=0;orthogonalLoop=1;jettySize=auto;html=1;" edge="1" parent="1" source="gc2R8hZUka59IbpJ6Cbl-2" target="gc2R8hZUka59IbpJ6Cbl-4">
          <mxGeometry relative="1" as="geometry" />
        </mxCell>
        <mxCell id="gc2R8hZUka59IbpJ6Cbl-2" value="Splash Screen" style="rounded=1;whiteSpace=wrap;html=1;absoluteArcSize=1;arcSize=14;strokeWidth=2;" vertex="1" parent="1">
          <mxGeometry x="500" y="120" width="100" height="40" as="geometry" />
        </mxCell>
        <mxCell id="gc2R8hZUka59IbpJ6Cbl-7" value="" style="edgeStyle=orthogonalEdgeStyle;rounded=0;orthogonalLoop=1;jettySize=auto;html=1;" edge="1" parent="1" source="gc2R8hZUka59IbpJ6Cbl-4" target="gc2R8hZUka59IbpJ6Cbl-6">
          <mxGeometry relative="1" as="geometry" />
        </mxCell>
        <mxCell id="gc2R8hZUka59IbpJ6Cbl-4" value="Generate Routing" style="rounded=1;whiteSpace=wrap;html=1;absoluteArcSize=1;arcSize=14;strokeWidth=2;" vertex="1" parent="1">
          <mxGeometry x="500" y="200" width="100" height="40" as="geometry" />
        </mxCell>
        <mxCell id="gc2R8hZUka59IbpJ6Cbl-12" value="" style="edgeStyle=orthogonalEdgeStyle;rounded=0;orthogonalLoop=1;jettySize=auto;html=1;" edge="1" parent="1" source="gc2R8hZUka59IbpJ6Cbl-6" target="gc2R8hZUka59IbpJ6Cbl-9">
          <mxGeometry relative="1" as="geometry" />
        </mxCell>
        <mxCell id="gc2R8hZUka59IbpJ6Cbl-6" value="Navigator Display" style="strokeWidth=2;html=1;shape=mxgraph.flowchart.display;whiteSpace=wrap;" vertex="1" parent="1">
          <mxGeometry x="500" y="280" width="100" height="60" as="geometry" />
        </mxCell>
        <mxCell id="gc2R8hZUka59IbpJ6Cbl-8" value="Profile" style="strokeWidth=2;html=1;shape=mxgraph.flowchart.display;whiteSpace=wrap;" vertex="1" parent="1">
          <mxGeometry x="200" y="380" width="100" height="60" as="geometry" />
        </mxCell>
        <mxCell id="gc2R8hZUka59IbpJ6Cbl-9" value="Article" style="strokeWidth=2;html=1;shape=mxgraph.flowchart.display;whiteSpace=wrap;" vertex="1" parent="1">
          <mxGeometry x="500" y="380" width="100" height="60" as="geometry" />
        </mxCell>
        <mxCell id="gc2R8hZUka59IbpJ6Cbl-10" value="Shop" style="strokeWidth=2;html=1;shape=mxgraph.flowchart.display;whiteSpace=wrap;" vertex="1" parent="1">
          <mxGeometry x="780" y="380" width="100" height="60" as="geometry" />
        </mxCell>
        <mxCell id="gc2R8hZUka59IbpJ6Cbl-13" style="edgeStyle=orthogonalEdgeStyle;rounded=0;orthogonalLoop=1;jettySize=auto;html=1;entryX=0.5;entryY=0;entryDx=0;entryDy=0;entryPerimeter=0;" edge="1" parent="1" source="gc2R8hZUka59IbpJ6Cbl-6" target="gc2R8hZUka59IbpJ6Cbl-8">
          <mxGeometry relative="1" as="geometry" />
        </mxCell>
        <mxCell id="gc2R8hZUka59IbpJ6Cbl-14" style="edgeStyle=orthogonalEdgeStyle;rounded=0;orthogonalLoop=1;jettySize=auto;html=1;entryX=0.5;entryY=0;entryDx=0;entryDy=0;entryPerimeter=0;" edge="1" parent="1" source="gc2R8hZUka59IbpJ6Cbl-6" target="gc2R8hZUka59IbpJ6Cbl-10">
          <mxGeometry relative="1" as="geometry" />
        </mxCell>
        <mxCell id="gc2R8hZUka59IbpJ6Cbl-15" value="Login" style="strokeWidth=2;html=1;shape=mxgraph.flowchart.display;whiteSpace=wrap;" vertex="1" parent="1">
          <mxGeometry x="90" y="480" width="100" height="60" as="geometry" />
        </mxCell>
        <mxCell id="gc2R8hZUka59IbpJ6Cbl-16" value="Create Akun" style="strokeWidth=2;html=1;shape=mxgraph.flowchart.display;whiteSpace=wrap;" vertex="1" parent="1">
          <mxGeometry x="300" y="480" width="100" height="60" as="geometry" />
        </mxCell>
        <mxCell id="gc2R8hZUka59IbpJ6Cbl-17" style="edgeStyle=orthogonalEdgeStyle;rounded=0;orthogonalLoop=1;jettySize=auto;html=1;entryX=0.604;entryY=0.015;entryDx=0;entryDy=0;entryPerimeter=0;" edge="1" parent="1" source="gc2R8hZUka59IbpJ6Cbl-8" target="gc2R8hZUka59IbpJ6Cbl-16">
          <mxGeometry relative="1" as="geometry" />
        </mxCell>
        <mxCell id="gc2R8hZUka59IbpJ6Cbl-18" style="edgeStyle=orthogonalEdgeStyle;rounded=0;orthogonalLoop=1;jettySize=auto;html=1;entryX=0.5;entryY=0;entryDx=0;entryDy=0;entryPerimeter=0;" edge="1" parent="1" source="gc2R8hZUka59IbpJ6Cbl-8" target="gc2R8hZUka59IbpJ6Cbl-15">
          <mxGeometry relative="1" as="geometry" />
        </mxCell>
      </root>
    </mxGraphModel>
  </diagram>
</mxfile>
